<svg width="137" height="42" viewBox="0 0 137 42" fill="none" xmlns="http://www.w3.org/2000/svg">
<path d="M7.35352 17.8438L4.50586 18.3184L3.73242 11.6035C12.2285 10.0566 17.6309 9.96875 19.9395 11.3398C22.2598 12.6992 23.5723 14.9727 23.877 18.1602C24.0293 23.0586 20.7891 26.457 14.1562 28.3555L14.3145 36.5469L10.2891 36.8457L7.35352 17.8438ZM13.8223 22.502C17.1035 21.4004 18.6914 20.0527 18.5859 18.459C18.4102 17.5098 17.9824 16.8945 17.3027 16.6133C16.6348 16.332 15.3047 16.3789 13.3125 16.7539L13.8223 22.502ZM32.8945 13.2207C35.6133 13.2207 37.9336 14.1523 39.8555 16.0156C41.7773 17.8672 42.7383 20.0996 42.7383 22.7129C42.7383 25.3379 41.7773 27.582 39.8555 29.4453C37.9336 31.2969 35.6133 32.2227 32.8945 32.2227C30.1758 32.2227 27.8555 31.2969 25.9336 29.4453C24.0117 27.582 23.0508 25.3379 23.0508 22.7129C23.0508 20.0996 24.0117 17.8672 25.9336 16.0156C27.8555 14.1523 30.1758 13.2207 32.8945 13.2207ZM39.2227 20.5508C39.1055 21.1016 38.8301 21.582 38.3965 21.9922C37.7988 22.5547 37.084 22.8359 36.252 22.8359C35.4199 22.8359 34.7051 22.5605 34.1074 22.0098C33.5215 21.4473 33.2285 20.7734 33.2285 19.9883C33.2285 19.2031 33.5215 18.5352 34.1074 17.9844C34.7051 17.4336 35.4199 17.1582 36.252 17.1582C36.416 17.1582 36.5684 17.1699 36.709 17.1934C36.0645 16.8652 35.3496 16.7012 34.5645 16.7012C33.2637 16.7012 32.1504 17.1523 31.2246 18.0547C30.3105 18.9453 29.8535 20.0234 29.8535 21.2891C29.8535 22.5547 30.3105 23.6328 31.2246 24.5234C32.1504 25.4141 33.2637 25.8594 34.5645 25.8594C35.8652 25.8594 36.9727 25.4141 37.8867 24.5234C38.8125 23.6328 39.2754 22.5547 39.2754 21.2891C39.2754 21.0312 39.2578 20.7852 39.2227 20.5508ZM40.7695 14.7148L40.6641 12.377L47.9238 11.1113L48.1523 19.4785L55.0781 10.8301L60.2285 15.3125L52.5996 24.0664L63.6914 31.291L63.252 36.4414L49.9277 27.3184L49.9805 35.8965L45.0762 36.4766L43.8809 14.3633L40.7695 14.7148ZM76.9453 22.6426L80.4258 26.2637C78.2109 29.4512 75.0703 31.0508 71.0039 31.0625C64.5352 31.0625 61.2656 28.127 61.1953 22.2559C61.2422 15.834 64.1484 12.6172 69.9141 12.6055C74.4961 12.6875 77.2031 14.668 78.0352 18.5469L69.7031 25.2617C73.0898 25.6367 75.5039 24.7637 76.9453 22.6426ZM66.9434 23.293L72.9375 18.6348C71.1094 17.0527 69.2695 16.8887 67.418 18.1426C65.7422 19.7246 65.584 21.4414 66.9434 23.293ZM67.0137 11.6035L65.6602 9.65234L70.1074 4.94141L72.8496 9.17773L67.0137 11.6035ZM80.25 36.2305L79.7051 12.1484C89.4902 10.707 94.9219 14.2051 96 22.6426C96.7734 31.127 91.5234 35.6562 80.25 36.2305ZM84.9258 29.7441C89.6133 29.3223 91.5176 26.9258 90.6387 22.5547C89.9238 18.3828 87.8906 16.502 84.5391 16.9121L84.9258 29.7441ZM111.012 22.6426L114.492 26.2637C112.277 29.4512 109.137 31.0508 105.07 31.0625C98.6016 31.0625 95.332 28.127 95.2617 22.2559C95.3086 15.834 98.2148 12.6172 103.98 12.6055C108.562 12.6875 111.27 14.668 112.102 18.5469L103.77 25.2617C107.156 25.6367 109.57 24.7637 111.012 22.6426ZM101.01 23.293L107.004 18.6348C105.176 17.0527 103.336 16.8887 101.484 18.1426C99.8086 19.7246 99.6504 21.4414 101.01 23.293ZM125.268 21.957L132.229 32.5391L126.604 36.0898L121.875 27.7578L117.023 36.0195L111.926 32.4512L119.01 22.7305L114.316 14.4688L118.324 11.375L122.561 17.8262L127.553 10.9883L131.244 11.7617L125.268 21.957Z" fill="#F2C91F"/>
<path d="M7.35352 17.8438L10.3183 17.3857L9.85485 14.3855L6.86032 14.8846L7.35352 17.8438ZM4.50586 18.3184L1.52556 18.6616L1.88662 21.7963L4.99906 21.2775L4.50586 18.3184ZM3.73242 11.6035L3.19505 8.65204L0.4306 9.15536L0.752127 11.9468L3.73242 11.6035ZM19.9395 11.3398L18.4075 13.9192L18.4152 13.9238L18.423 13.9283L19.9395 11.3398ZM23.877 18.1602L26.8755 18.0669L26.8725 17.9706L26.8633 17.8747L23.877 18.1602ZM14.1562 28.3555L13.3307 25.4713L11.1123 26.1063L11.1568 28.4134L14.1562 28.3555ZM14.3145 36.5469L14.5365 39.5386L17.3687 39.3284L17.3139 36.4889L14.3145 36.5469ZM10.2891 36.8457L7.32423 37.3037L7.74736 40.0426L10.5112 39.8375L10.2891 36.8457ZM13.8223 22.502L10.834 22.767L11.1701 26.5569L14.777 25.346L13.8223 22.502ZM18.5859 18.459L21.5794 18.2609L21.5678 18.0855L21.5358 17.9127L18.5859 18.459ZM17.3027 16.6133L16.1386 19.3782L16.1471 19.3818L16.1557 19.3853L17.3027 16.6133ZM13.3125 16.7539L12.7575 13.8057L10.0839 14.309L10.3242 17.0189L13.3125 16.7539ZM6.86032 14.8846L4.01266 15.3592L4.99906 21.2775L7.84671 20.8029L6.86032 14.8846ZM7.48615 17.9751L6.71272 11.2602L0.752127 11.9468L1.52556 18.6616L7.48615 17.9751ZM4.26979 14.555C8.4398 13.7958 11.7349 13.4172 14.2051 13.377C16.8106 13.3347 18.0131 13.685 18.4075 13.9192L21.4714 8.76046C19.5572 7.62364 16.9042 7.33234 14.1074 7.37784C11.1753 7.42554 7.52114 7.86439 3.19505 8.65204L4.26979 14.555ZM18.423 13.9283C19.747 14.704 20.6577 16.0097 20.8906 18.4456L26.8633 17.8747C26.4868 13.9356 24.7726 10.6944 21.4559 8.75136L18.423 13.9283ZM20.8784 18.2534C20.9308 19.939 20.4291 21.2225 19.3898 22.3126C18.2713 23.4857 16.3591 24.6045 13.3307 25.4713L14.9818 31.2397C18.5862 30.208 21.6105 28.6784 23.7323 26.453C25.9332 24.1447 26.9754 21.2797 26.8755 18.0669L20.8784 18.2534ZM11.1568 28.4134L11.315 36.6048L17.3139 36.4889L17.1557 28.2975L11.1568 28.4134ZM14.0924 33.5551L10.067 33.8539L10.5112 39.8375L14.5365 39.5386L14.0924 33.5551ZM13.2539 36.3877L10.3183 17.3857L4.38869 18.3018L7.32423 37.3037L13.2539 36.3877ZM14.777 25.346C16.5716 24.7435 18.2011 23.9829 19.4154 22.9523C20.6926 21.8683 21.7132 20.2829 21.5794 18.2609L15.5925 18.6571C15.5641 18.2288 15.8435 18.1142 15.5329 18.3778C15.1593 18.6948 14.3542 19.1588 12.8675 19.6579L14.777 25.346ZM21.5358 17.9127C21.2397 16.3138 20.3558 14.6299 18.4498 13.8412L16.1557 19.3853C16.0676 19.3489 15.9708 19.294 15.8777 19.2186C15.7848 19.1434 15.7165 19.0648 15.6701 18.9982C15.5814 18.8706 15.6043 18.8335 15.6361 19.0053L21.5358 17.9127ZM18.4669 13.8484C17.5229 13.4509 16.4943 13.4113 15.6985 13.4394C14.8264 13.4701 13.8338 13.6031 12.7575 13.8057L13.8675 19.7021C14.7834 19.5297 15.4519 19.4518 15.9099 19.4356C16.1358 19.4277 16.2686 19.4365 16.3281 19.4434C16.3975 19.4516 16.3105 19.4506 16.1386 19.3782L18.4669 13.8484ZM10.3242 17.0189L10.834 22.767L16.8105 22.2369L16.3008 16.4889L10.3242 17.0189ZM39.8555 16.0156L37.7672 18.1695L37.774 18.1761L39.8555 16.0156ZM39.8555 29.4453L41.9369 31.6058L41.9437 31.5992L39.8555 29.4453ZM25.9336 29.4453L23.8454 31.5992L23.8522 31.6058L25.9336 29.4453ZM25.9336 16.0156L28.015 18.1761L28.0218 18.1695L25.9336 16.0156ZM39.2227 20.5508L42.1895 20.1058L36.2883 19.9265L39.2227 20.5508ZM38.3965 21.9922L40.4526 24.1768L40.4581 24.1716L38.3965 21.9922ZM34.1074 22.0098L32.0298 24.1739L32.0519 24.1951L32.0744 24.2158L34.1074 22.0098ZM34.1074 17.9844L32.0744 15.7783L32.0635 15.7883L32.0527 15.7985L34.1074 17.9844ZM36.709 17.1934L36.2158 20.1525L38.07 14.5199L36.709 17.1934ZM31.2246 18.0547L33.3182 20.2034L33.3186 20.203L31.2246 18.0547ZM31.2246 24.5234L29.131 26.6721L29.1379 26.6788L29.1447 26.6854L31.2246 24.5234ZM37.8867 24.5234L35.8068 22.3615L35.8 22.3681L35.7931 22.3747L37.8867 24.5234ZM32.8945 16.2207C34.8473 16.2207 36.4148 16.8583 37.7672 18.1695L41.9437 13.8617C39.4524 11.4464 36.3792 10.2207 32.8945 10.2207V16.2207ZM37.774 18.1761C39.123 19.4757 39.7383 20.9339 39.7383 22.7129H45.7383C45.7383 19.2653 44.4317 16.2587 41.9369 13.8552L37.774 18.1761ZM39.7383 22.7129C39.7383 24.5083 39.1193 25.9806 37.7672 27.2914L41.9437 31.5992C44.4354 29.1835 45.7383 26.1675 45.7383 22.7129H39.7383ZM37.774 27.2848C36.4228 28.5866 34.8532 29.2227 32.8945 29.2227V35.2227C36.3733 35.2227 39.4444 34.0071 41.9369 31.6058L37.774 27.2848ZM32.8945 29.2227C30.9358 29.2227 29.3663 28.5866 28.015 27.2848L23.8522 31.6058C26.3447 34.0071 29.4157 35.2227 32.8945 35.2227V29.2227ZM28.0218 27.2914C26.6698 25.9806 26.0508 24.5083 26.0508 22.7129H20.0508C20.0508 26.1675 21.3536 29.1835 23.8454 31.5992L28.0218 27.2914ZM26.0508 22.7129C26.0508 20.9339 26.6661 19.4757 28.015 18.1761L23.8522 13.8552C21.3574 16.2587 20.0508 19.2653 20.0508 22.7129H26.0508ZM28.0218 18.1695C29.3743 16.8583 30.9417 16.2207 32.8945 16.2207V10.2207C29.4098 10.2207 26.3367 11.4464 23.8454 13.8617L28.0218 18.1695ZM36.2883 19.9265C36.2905 19.9165 36.2945 19.9015 36.3014 19.8834C36.3083 19.8652 36.3166 19.8478 36.3254 19.8324C36.3445 19.7992 36.3552 19.7936 36.3349 19.8128L40.4581 24.1716C41.3055 23.37 41.9054 22.3573 42.157 21.1751L36.2883 19.9265ZM36.3404 19.8076C36.318 19.8287 36.3056 19.8368 36.304 19.8378C36.3028 19.8386 36.3066 19.8361 36.3137 19.8333C36.3208 19.8305 36.3232 19.8305 36.3173 19.8316C36.311 19.8327 36.2904 19.8359 36.252 19.8359V25.8359C37.8365 25.8359 39.29 25.271 40.4526 24.1768L36.3404 19.8076ZM36.252 19.8359C36.2099 19.8359 36.1856 19.8325 36.1757 19.8307C36.1663 19.8291 36.1656 19.8282 36.1703 19.8299C36.175 19.8318 36.1775 19.8334 36.1758 19.8323C36.1738 19.8311 36.1618 19.8234 36.1405 19.8037L32.0744 24.2158C33.2404 25.2904 34.6864 25.8359 36.252 25.8359V19.8359ZM36.185 19.8456C36.1646 19.826 36.1616 19.8198 36.168 19.8288C36.1748 19.8384 36.1871 19.8579 36.1995 19.8863C36.2119 19.9149 36.2201 19.9427 36.2247 19.9657C36.2292 19.9881 36.2285 19.9971 36.2285 19.9883H30.2285C30.2285 21.6215 30.8775 23.0677 32.0298 24.1739L36.185 19.8456ZM36.2285 19.9883C36.2285 19.9794 36.2293 19.9896 36.2243 20.0143C36.2192 20.0396 36.2099 20.0707 36.1956 20.1034C36.1813 20.136 36.1664 20.16 36.1562 20.1742C36.1464 20.1878 36.1456 20.1858 36.1622 20.1703L32.0527 15.7985C30.8801 16.9007 30.2285 18.3529 30.2285 19.9883H36.2285ZM36.1405 20.1904C36.1618 20.1708 36.1738 20.1631 36.1758 20.1618C36.1775 20.1607 36.175 20.1624 36.1703 20.1642C36.1656 20.166 36.1663 20.1651 36.1757 20.1634C36.1856 20.1616 36.2099 20.1582 36.252 20.1582V14.1582C34.6864 14.1582 33.2404 14.7038 32.0744 15.7783L36.1405 20.1904ZM36.252 20.1582C36.2628 20.1582 36.2649 20.1586 36.2592 20.1582C36.2534 20.1577 36.2386 20.1563 36.2158 20.1525L37.2022 14.2342C36.8764 14.1799 36.5572 14.1582 36.252 14.1582V20.1582ZM38.07 14.5199C36.9686 13.9591 35.7814 13.7012 34.5645 13.7012V19.7012C34.9179 19.7012 35.1603 19.7713 35.3479 19.8668L38.07 14.5199ZM34.5645 13.7012C32.4868 13.7012 30.6205 14.4542 29.1307 15.9063L33.3186 20.203C33.6802 19.8505 34.0406 19.7012 34.5645 19.7012V13.7012ZM29.131 15.906C27.6429 17.356 26.8535 19.2067 26.8535 21.2891H32.8535C32.8535 20.8402 32.9782 20.5347 33.3182 20.2034L29.131 15.906ZM26.8535 21.2891C26.8535 23.3715 27.6429 25.2222 29.131 26.6721L33.3182 22.3747C32.9782 22.0435 32.8535 21.7379 32.8535 21.2891H26.8535ZM29.1447 26.6854C30.6372 28.1212 32.499 28.8594 34.5645 28.8594V22.8594C34.0283 22.8594 33.6636 22.7069 33.3045 22.3615L29.1447 26.6854ZM34.5645 28.8594C36.6306 28.8594 38.4941 28.1202 39.9803 26.6721L35.7931 22.3747C35.4512 22.7079 35.0999 22.8594 34.5645 22.8594V28.8594ZM39.9666 26.6854C41.4703 25.2388 42.2754 23.3842 42.2754 21.2891H36.2754C36.2754 21.7252 36.1547 22.0268 35.8068 22.3615L39.9666 26.6854ZM42.2754 21.2891C42.2754 20.8951 42.2485 20.4996 42.1895 20.1058L36.2558 20.9958C36.2671 21.0707 36.2754 21.1674 36.2754 21.2891H42.2754ZM40.7695 14.7148L37.7726 14.85L37.9172 18.0562L41.1064 17.6959L40.7695 14.7148ZM40.6641 12.377L40.1488 9.42153L37.5481 9.87492L37.6671 12.5122L40.6641 12.377ZM47.9238 11.1113L50.9227 11.0294L50.828 7.55979L47.4086 8.1559L47.9238 11.1113ZM48.1523 19.4785L45.1535 19.5604L45.377 27.7436L50.494 21.3538L48.1523 19.4785ZM55.0781 10.8301L57.0476 8.56709L54.6901 6.5153L52.7364 8.95483L55.0781 10.8301ZM60.2285 15.3125L62.4902 17.2835L64.4625 15.0203L62.198 13.0495L60.2285 15.3125ZM52.5996 24.0664L50.3379 22.0954L48.0708 24.6969L50.9623 26.5802L52.5996 24.0664ZM63.6914 31.291L66.6805 31.5461L66.8332 29.7571L65.3288 28.7772L63.6914 31.291ZM63.252 36.4414L61.5571 38.9168L65.8036 41.8243L66.2411 36.6965L63.252 36.4414ZM49.9277 27.3184L51.6226 24.843L46.8926 21.6043L46.9278 27.3368L49.9277 27.3184ZM49.9805 35.8965L50.3329 38.8757L52.9969 38.5606L52.9804 35.878L49.9805 35.8965ZM45.0762 36.4766L42.0805 36.6385L42.2531 39.8314L45.4286 39.4558L45.0762 36.4766ZM43.8809 14.3633L46.8765 14.2014L46.7048 11.0251L43.544 11.3823L43.8809 14.3633ZM43.7665 14.5796L43.661 12.2418L37.6671 12.5122L37.7726 14.85L43.7665 14.5796ZM41.1793 15.3324L48.4391 14.0668L47.4086 8.1559L40.1488 9.42153L41.1793 15.3324ZM44.9249 11.1932L45.1535 19.5604L51.1512 19.3966L50.9227 11.0294L44.9249 11.1932ZM50.494 21.3538L57.4198 12.7053L52.7364 8.95483L45.8107 17.6033L50.494 21.3538ZM53.1086 13.0931L58.259 17.5755L62.198 13.0495L57.0476 8.56709L53.1086 13.0931ZM57.9669 13.3415L50.3379 22.0954L54.8613 26.0374L62.4902 17.2835L57.9669 13.3415ZM50.9623 26.5802L62.0541 33.8048L65.3288 28.7772L54.237 21.5526L50.9623 26.5802ZM60.7023 31.036L60.2628 36.1864L66.2411 36.6965L66.6805 31.5461L60.7023 31.036ZM64.9468 33.966L51.6226 24.843L48.2329 29.7937L61.5571 38.9168L64.9468 33.966ZM46.9278 27.3368L46.9805 35.9149L52.9804 35.878L52.9277 27.2999L46.9278 27.3368ZM49.6281 32.9173L44.7238 33.4973L45.4286 39.4558L50.3329 38.8757L49.6281 32.9173ZM48.0718 36.3146L46.8765 14.2014L40.8852 14.5252L42.0805 36.6385L48.0718 36.3146ZM43.544 11.3823L40.4327 11.7338L41.1064 17.6959L44.2177 17.3443L43.544 11.3823ZM76.9453 22.6426L79.1082 20.5637L76.5439 17.8958L74.464 20.9564L76.9453 22.6426ZM80.4258 26.2637L82.8894 27.9755L84.292 25.9569L82.5887 24.1848L80.4258 26.2637ZM71.0039 31.0625L71.0039 34.0625L71.0126 34.0625L71.0039 31.0625ZM61.1953 22.2559L58.1954 22.234L58.1952 22.2629L58.1955 22.2918L61.1953 22.2559ZM69.9141 12.6055L69.9678 9.60595L69.9379 9.60541L69.908 9.60547L69.9141 12.6055ZM78.0352 18.5469L79.9176 20.8827L81.3558 19.7237L80.9684 17.9177L78.0352 18.5469ZM69.7031 25.2617L67.8206 22.9259L62.2069 27.45L69.373 28.2435L69.7031 25.2617ZM66.9434 23.293L64.5251 25.0684L66.3498 27.5537L68.7842 25.6618L66.9434 23.293ZM72.9375 18.6348L74.7784 21.0036L77.6661 18.7594L74.9006 16.3663L72.9375 18.6348ZM67.418 18.1426L65.7358 15.6586L65.5349 15.7946L65.3585 15.9611L67.418 18.1426ZM67.0137 11.6035L64.5487 13.3135L65.929 15.3032L68.1651 14.3737L67.0137 11.6035ZM65.6602 9.65234L63.4787 7.59295L61.808 9.36263L63.1952 11.3623L65.6602 9.65234ZM70.1074 4.94141L72.6259 3.31122L70.5493 0.103151L67.9259 2.88201L70.1074 4.94141ZM72.8496 9.17773L74.0011 11.948L77.3227 10.5673L75.368 7.54755L72.8496 9.17773ZM74.7824 24.7215L78.2629 28.3426L82.5887 24.1848L79.1082 20.5637L74.7824 24.7215ZM77.9621 24.5518C76.3371 26.8905 74.1374 28.0535 70.9953 28.0625L71.0126 34.0625C76.0032 34.0481 80.0848 32.0119 82.8894 27.9755L77.9621 24.5518ZM71.0039 28.0625C68.1671 28.0625 66.5783 27.4131 65.7044 26.6286C64.8843 25.8922 64.2237 24.6115 64.1951 22.2199L58.1955 22.2918C58.2372 25.7713 59.2466 28.8939 61.696 31.0931C64.0917 33.2441 67.372 34.0625 71.0039 34.0625V28.0625ZM64.1952 22.2778C64.2158 19.4566 64.867 17.8894 65.6362 17.038C66.3513 16.2465 67.5904 15.6102 69.9202 15.6055L69.908 9.60547C66.4721 9.61246 63.3753 10.5904 61.1841 13.0157C59.0471 15.3811 58.2217 18.6332 58.1954 22.234L64.1952 22.2778ZM69.8604 15.605C71.7543 15.6389 72.9083 16.0606 73.6095 16.5736C74.2635 17.052 74.8104 17.8173 75.1019 19.1761L80.9684 17.9177C80.4279 15.3976 79.2053 13.2331 77.1522 11.7311C75.1464 10.2637 72.6558 9.65407 69.9678 9.60595L69.8604 15.605ZM76.1527 16.211L67.8206 22.9259L71.5856 27.5976L79.9176 20.8827L76.1527 16.211ZM69.373 28.2435C73.4437 28.6942 77.1538 27.6733 79.4266 24.3288L74.464 20.9564C73.854 21.854 72.736 22.5792 70.0333 22.2799L69.373 28.2435ZM68.7842 25.6618L74.7784 21.0036L71.0966 16.266L65.1025 20.9242L68.7842 25.6618ZM74.9006 16.3663C73.6568 15.2899 72.1685 14.49 70.453 14.3371C68.7083 14.1815 67.1088 14.7288 65.7358 15.6586L69.1002 20.6266C69.5787 20.3025 69.825 20.3049 69.9201 20.3133C70.0444 20.3244 70.3901 20.3976 70.9744 20.9033L74.9006 16.3663ZM65.3585 15.9611C64.1708 17.0824 63.221 18.5411 63.0551 20.3414C62.8891 22.1435 63.5579 23.7509 64.5251 25.0684L69.3616 21.5176C68.9695 20.9834 69.0377 20.8067 69.0298 20.892C69.0221 20.9755 68.9894 20.7848 69.4774 20.324L65.3585 15.9611ZM69.4786 9.89358L68.1251 7.94241L63.1952 11.3623L64.5487 13.3135L69.4786 9.89358ZM67.8416 11.7117L72.2889 7.0008L67.9259 2.88201L63.4787 7.59295L67.8416 11.7117ZM67.589 6.57159L70.3312 10.8079L75.368 7.54755L72.6259 3.31122L67.589 6.57159ZM71.6981 6.40752L65.8622 8.8333L68.1651 14.3737L74.0011 11.948L71.6981 6.40752ZM80.25 36.2305L77.2508 36.2983L77.3206 39.3836L80.4026 39.2266L80.25 36.2305ZM79.7051 12.1484L79.2679 9.18047L76.6459 9.5667L76.7058 12.2163L79.7051 12.1484ZM96 22.6426L98.9876 22.3702L98.9827 22.3162L98.9758 22.2623L96 22.6426ZM84.9258 29.7441L81.9271 29.8345L82.0231 33.0175L85.1947 32.7321L84.9258 29.7441ZM90.6387 22.5547L87.6818 23.0613L87.689 23.1038L87.6975 23.1461L90.6387 22.5547ZM84.5391 16.9121L84.1746 13.9343L81.458 14.2668L81.5404 17.0025L84.5391 16.9121ZM83.2492 36.1626L82.7043 12.0806L76.7058 12.2163L77.2508 36.2983L83.2492 36.1626ZM80.1423 15.1164C84.6831 14.4475 87.6406 15.02 89.4933 16.2131C91.2451 17.3413 92.5594 19.3856 93.0242 23.0228L98.9758 22.2623C98.3624 17.4621 96.4219 13.5386 92.742 11.1687C89.1631 8.86383 84.5122 8.40794 79.2679 9.18047L80.1423 15.1164ZM93.0124 22.9149C93.3338 26.4411 92.4046 28.646 90.6829 30.1313C88.7934 31.7615 85.4542 32.9615 80.0974 33.2344L80.4026 39.2266C86.3193 38.9252 91.2418 37.5735 94.6022 34.6743C98.1305 31.6304 99.4396 27.3284 98.9876 22.3702L93.0124 22.9149ZM85.1947 32.7321C87.9228 32.4865 90.5367 31.613 92.2184 29.4967C93.9346 27.337 94.1117 24.6088 93.5798 21.9633L87.6975 23.1461C88.0445 24.8716 87.709 25.5273 87.5209 25.764C87.2982 26.0442 86.6163 26.5799 84.6569 26.7562L85.1947 32.7321ZM93.5956 22.048C93.1823 19.6364 92.3128 17.3837 90.6148 15.8129C88.81 14.1433 86.5161 13.6478 84.1746 13.9343L84.9035 19.8899C85.9136 19.7663 86.3121 20.0061 86.5404 20.2174C86.8757 20.5275 87.3802 21.3011 87.6818 23.0613L93.5956 22.048ZM81.5404 17.0025L81.9271 29.8345L87.9244 29.6538L87.5377 16.8217L81.5404 17.0025ZM111.012 22.6426L113.175 20.5637L110.61 17.8958L108.53 20.9564L111.012 22.6426ZM114.492 26.2637L116.956 27.9755L118.358 25.9569L116.655 24.1848L114.492 26.2637ZM105.07 31.0625L105.07 34.0625L105.079 34.0625L105.07 31.0625ZM95.2617 22.2559L92.2618 22.234L92.2616 22.2629L92.2619 22.2918L95.2617 22.2559ZM103.98 12.6055L104.034 9.60595L104.004 9.60541L103.974 9.60547L103.98 12.6055ZM112.102 18.5469L113.984 20.8827L115.422 19.7237L115.035 17.9177L112.102 18.5469ZM103.77 25.2617L101.887 22.9259L96.2733 27.45L103.439 28.2435L103.77 25.2617ZM101.01 23.293L98.5915 25.0684L100.416 27.5537L102.851 25.6618L101.01 23.293ZM107.004 18.6348L108.845 21.0036L111.732 18.7594L108.967 16.3663L107.004 18.6348ZM101.484 18.1426L99.8022 15.6586L99.6013 15.7946L99.425 15.9611L101.484 18.1426ZM108.849 24.7215L112.329 28.3426L116.655 24.1848L113.175 20.5637L108.849 24.7215ZM112.029 24.5518C110.404 26.8905 108.204 28.0535 105.062 28.0625L105.079 34.0625C110.07 34.0481 114.151 32.0119 116.956 27.9755L112.029 24.5518ZM105.07 28.0625C102.233 28.0625 100.645 27.4131 99.7708 26.6286C98.9507 25.8922 98.2901 24.6115 98.2615 22.2199L92.2619 22.2918C92.3036 25.7713 93.313 28.8939 95.7624 31.0931C98.1581 33.2441 101.438 34.0625 105.07 34.0625V28.0625ZM98.2616 22.2778C98.2822 19.4566 98.9334 17.8894 99.7026 17.038C100.418 16.2465 101.657 15.6102 103.987 15.6055L103.974 9.60547C100.539 9.61246 97.4417 10.5904 95.2505 13.0157C93.1135 15.3811 92.2881 18.6332 92.2618 22.234L98.2616 22.2778ZM103.927 15.605C105.821 15.6389 106.975 16.0606 107.676 16.5736C108.33 17.052 108.877 17.8173 109.168 19.1761L115.035 17.9177C114.494 15.3976 113.272 13.2331 111.219 11.7311C109.213 10.2637 106.722 9.65407 104.034 9.60595L103.927 15.605ZM110.219 16.211L101.887 22.9259L105.652 27.5976L113.984 20.8827L110.219 16.211ZM103.439 28.2435C107.51 28.6942 111.22 27.6733 113.493 24.3288L108.53 20.9564C107.92 21.854 106.802 22.5792 104.1 22.2799L103.439 28.2435ZM102.851 25.6618L108.845 21.0036L105.163 16.266L99.1689 20.9242L102.851 25.6618ZM108.967 16.3663C107.723 15.2899 106.235 14.49 104.519 14.3371C102.775 14.1815 101.175 14.7288 99.8022 15.6586L103.167 20.6266C103.645 20.3025 103.891 20.3049 103.986 20.3133C104.111 20.3244 104.456 20.3976 105.041 20.9033L108.967 16.3663ZM99.425 15.9611C98.2372 17.0824 97.2874 18.5411 97.1215 20.3414C96.9555 22.1435 97.6243 23.7509 98.5915 25.0684L103.428 21.5176C103.036 20.9834 103.104 20.8067 103.096 20.892C103.089 20.9755 103.056 20.7848 103.544 20.324L99.425 15.9611ZM125.268 21.957L122.679 20.4399L121.737 22.0482L122.761 23.6057L125.268 21.957ZM132.229 32.5391L133.83 35.0759L136.415 33.4442L134.735 30.8904L132.229 32.5391ZM126.604 36.0898L123.994 37.5705L125.546 40.305L128.205 38.6267L126.604 36.0898ZM121.875 27.7578L124.484 26.2771L121.919 21.7578L119.288 26.2387L121.875 27.7578ZM117.023 36.0195L115.303 38.4772L117.965 40.3406L119.61 37.5387L117.023 36.0195ZM111.926 32.4512L109.501 30.6843L107.7 33.1554L110.205 34.9089L111.926 32.4512ZM119.01 22.7305L121.434 24.4973L122.575 22.9324L121.618 21.2486L119.01 22.7305ZM114.316 14.4688L112.483 12.094L110.421 13.6857L111.708 15.9506L114.316 14.4688ZM118.324 11.375L120.832 9.72828L119.054 7.02151L116.491 9.00023L118.324 11.375ZM122.561 17.8262L120.053 19.4729L122.43 23.0928L124.984 19.5951L122.561 17.8262ZM127.553 10.9883L128.168 8.05204L126.272 7.65479L125.13 9.21932L127.553 10.9883ZM131.244 11.7617L133.832 13.2789L135.941 9.68078L131.859 8.82548L131.244 11.7617ZM122.761 23.6057L129.722 34.1878L134.735 30.8904L127.774 20.3083L122.761 23.6057ZM130.627 30.0022L125.002 33.553L128.205 38.6267L133.83 35.0759L130.627 30.0022ZM129.213 34.6091L124.484 26.2771L119.266 29.2385L123.994 37.5705L129.213 34.6091ZM119.288 26.2387L114.437 34.5004L119.61 37.5387L124.462 29.2769L119.288 26.2387ZM118.744 33.5618L113.646 29.9935L110.205 34.9089L115.303 38.4772L118.744 33.5618ZM114.35 34.218L121.434 24.4973L116.585 20.9636L109.501 30.6843L114.35 34.218ZM121.618 21.2486L116.925 12.9869L111.708 15.9506L116.401 24.2123L121.618 21.2486ZM116.15 16.8435L120.157 13.7498L116.491 9.00023L112.483 12.094L116.15 16.8435ZM115.817 13.0217L120.053 19.4729L125.068 16.1795L120.832 9.72828L115.817 13.0217ZM124.984 19.5951L129.976 12.7572L125.13 9.21932L120.138 16.0572L124.984 19.5951ZM126.938 13.9245L130.629 14.698L131.859 8.82548L128.168 8.05204L126.938 13.9245ZM128.656 10.2446L122.679 20.4399L127.856 23.4742L133.832 13.2789L128.656 10.2446Z" fill="#214F91"/>
</svg>
